<?xml version="1.0" encoding="UTF-8" standalone="no"?>
<!-- Created with Inkscape (http://www.inkscape.org/) -->

<svg
   xmlns:dc="http://purl.org/dc/elements/1.1/"
   xmlns:cc="http://creativecommons.org/ns#"
   xmlns:rdf="http://www.w3.org/1999/02/22-rdf-syntax-ns#"
   xmlns:svg="http://www.w3.org/2000/svg"
   xmlns="http://www.w3.org/2000/svg"
   xmlns:sodipodi="http://sodipodi.sourceforge.net/DTD/sodipodi-0.dtd"
   xmlns:inkscape="http://www.inkscape.org/namespaces/inkscape"
   version="1.1"
   id="svg2"
   xml:space="preserve"
   width="664.22266"
   height="589.38934"
   viewBox="0 0 664.22266 589.38934"
   sodipodi:docname="file-types.svg"
   inkscape:version="0.92.5 (2060ec1f9f, 2020-04-08)"><metadata
     id="metadata8"><rdf:RDF><cc:Work
         rdf:about=""><dc:format>image/svg+xml</dc:format><dc:type
           rdf:resource="http://purl.org/dc/dcmitype/StillImage" /><dc:title></dc:title></cc:Work></rdf:RDF></metadata><defs
     id="defs6"><clipPath
       clipPathUnits="userSpaceOnUse"
       id="clipPath18"><path
         d="M 0,442.042 H 498.167 V 0 H 0 Z"
         id="path16"
         inkscape:connector-curvature="0" /></clipPath><clipPath
       clipPathUnits="userSpaceOnUse"
       id="clipPath50"><path
         d="m 188.516,131.215 158.7,-11.097 -1.653,129.806 -158.7,11.097 z"
         id="path48"
         inkscape:connector-curvature="0" /></clipPath></defs><sodipodi:namedview
     pagecolor="#ffffff"
     bordercolor="#666666"
     borderopacity="1"
     objecttolerance="10"
     gridtolerance="10"
     guidetolerance="10"
     inkscape:pageopacity="0"
     inkscape:pageshadow="2"
     inkscape:window-width="1438"
     inkscape:window-height="836"
     id="namedview4"
     showgrid="false"
     inkscape:zoom="0.40041443"
     inkscape:cx="332.11133"
     inkscape:cy="294.69467"
     inkscape:window-x="0"
     inkscape:window-y="0"
     inkscape:window-maximized="0"
     inkscape:current-layer="g10" /><g
     id="g10"
     inkscape:groupmode="layer"
     inkscape:label="Web Puzzlers Icons Svg"
     transform="matrix(1.3333333,0,0,-1.3333333,0,589.38933)"><g
       id="g12"
       transform="matrix(1.5076784,0,0,1.5076784,-126.46667,-114.5697)"><g
         id="g14"
         clip-path="url(#clipPath18)"><g
           id="g20"
           transform="translate(138.6375,286.6234)"><path
             d="M 0,0 C -0.786,0.055 -1.566,0.081 -2.341,0.084 -2.598,0.085 -2.851,0.071 -3.107,0.067 -3.621,0.058 -4.135,0.048 -4.644,0.017 -4.709,0.013 -4.776,0.015 -4.842,0.011 -5.387,-0.025 -5.927,-0.078 -6.465,-0.139 -6.588,-0.153 -6.71,-0.171 -6.834,-0.186 -7.37,-0.253 -7.902,-0.333 -8.429,-0.424 c -0.137,-0.024 -0.274,-0.045 -0.409,-0.07 -0.546,-0.101 -1.088,-0.211 -1.623,-0.338 -0.048,-0.011 -0.093,-0.027 -0.141,-0.038 -0.616,-0.149 -1.224,-0.319 -1.826,-0.5 -0.107,-0.032 -0.217,-0.057 -0.324,-0.091 -0.707,-0.22 -1.403,-0.465 -2.089,-0.73 -0.028,-0.011 -0.057,-0.019 -0.085,-0.03 -0.583,-0.227 -1.159,-0.47 -1.726,-0.729 -0.764,-0.345 -1.512,-0.719 -2.244,-1.119 -0.023,-0.012 -0.045,-0.024 -0.067,-0.037 l -14.633,-8.041 c 0.753,0.414 1.524,0.8 2.311,1.156 0.594,0.271 1.199,0.522 1.812,0.758 0.686,0.265 1.381,0.511 2.088,0.731 0.107,0.033 0.217,0.058 0.323,0.091 0.603,0.181 1.211,0.351 1.828,0.499 0.582,0.141 1.17,0.266 1.763,0.377 0.136,0.025 0.273,0.046 0.409,0.07 0.527,0.091 1.059,0.17 1.595,0.237 0.124,0.016 0.246,0.034 0.369,0.048 0.602,0.068 1.209,0.119 1.821,0.156 0.509,0.031 1.024,0.041 1.539,0.049 0.256,0.005 0.508,0.019 0.765,0.018 0.774,-0.004 1.554,-0.029 2.34,-0.084 5.993,-0.419 11.695,-2.304 16.766,-5.287 l 14.633,8.042 C 11.695,-2.303 5.993,-0.419 0,0"
             style="fill:#490123;fill-opacity:1;fill-rule:nonzero;stroke:none"
             id="path22"
             inkscape:connector-curvature="0" /></g><g
           id="g24"
           transform="translate(139.7186,355.9055)"><path
             d="M 0,0 14.633,8.041 64.982,4.521 50.349,-3.521 Z"
             style="fill:#4b0123;fill-opacity:1;fill-rule:nonzero;stroke:none"
             id="path26"
             inkscape:connector-curvature="0" /></g><g
           id="g28"
           transform="translate(308.3534,305.0721)"><path
             d="m 0,0 c -0.112,-0.056 -0.226,-0.108 -0.339,-0.164 -0.526,-0.262 -1.056,-0.52 -1.59,-0.767 -0.23,-0.107 -0.464,-0.207 -0.696,-0.311 -0.422,-0.189 -0.845,-0.378 -1.272,-0.558 -0.265,-0.112 -0.533,-0.218 -0.8,-0.327 -0.393,-0.16 -0.787,-0.318 -1.184,-0.47 -0.329,-0.126 -0.661,-0.247 -0.994,-0.367 -0.367,-0.134 -0.734,-0.267 -1.104,-0.394 -0.335,-0.115 -0.671,-0.224 -1.008,-0.333 -0.374,-0.121 -0.747,-0.242 -1.124,-0.356 -0.34,-0.103 -0.682,-0.202 -1.024,-0.299 -0.378,-0.108 -0.757,-0.215 -1.138,-0.316 -0.347,-0.092 -0.696,-0.18 -1.045,-0.266 -0.359,-0.089 -0.719,-0.176 -1.08,-0.258 -0.512,-0.118 -1.027,-0.226 -1.543,-0.331 -0.306,-0.062 -0.611,-0.127 -0.918,-0.185 -0.584,-0.11 -1.172,-0.208 -1.762,-0.302 -0.241,-0.038 -0.481,-0.083 -0.723,-0.118 -0.832,-0.124 -1.67,-0.232 -2.513,-0.324 -0.148,-0.016 -0.298,-0.025 -0.446,-0.04 -0.697,-0.071 -1.398,-0.134 -2.102,-0.183 -0.433,-0.03 -0.868,-0.05 -1.303,-0.071 -0.328,-0.017 -0.655,-0.037 -0.985,-0.048 -0.468,-0.016 -0.938,-0.021 -1.409,-0.027 -0.31,-0.004 -0.62,-0.014 -0.931,-0.014 -0.525,0 -1.052,0.014 -1.58,0.026 -0.261,0.007 -0.519,0.006 -0.78,0.015 -0.791,0.028 -1.585,0.069 -2.382,0.125 -33.477,2.34 -61.942,28.725 -69.878,62.017 l -14.633,-8.041 c 7.936,-33.292 36.401,-59.677 69.878,-62.018 0.797,-0.055 1.591,-0.096 2.382,-0.124 0.258,-0.009 0.514,-0.009 0.772,-0.015 0.531,-0.013 1.062,-0.026 1.59,-0.026 0.31,0 0.618,0.009 0.927,0.013 0.47,0.007 0.941,0.011 1.409,0.027 0.333,0.012 0.662,0.032 0.994,0.049 0.36,0.018 0.724,0.029 1.083,0.053 0.071,0.004 0.142,0.013 0.213,0.018 0.708,0.049 1.412,0.112 2.113,0.183 0.144,0.015 0.29,0.024 0.434,0.04 0.844,0.091 1.681,0.2 2.514,0.323 0.243,0.036 0.482,0.081 0.723,0.119 0.59,0.094 1.178,0.192 1.762,0.302 0.308,0.058 0.614,0.123 0.921,0.185 0.514,0.105 1.028,0.213 1.538,0.33 0.139,0.032 0.282,0.057 0.421,0.09 0.223,0.053 0.442,0.114 0.664,0.169 0.348,0.086 0.696,0.174 1.042,0.266 0.38,0.101 0.758,0.207 1.135,0.315 0.344,0.098 0.687,0.196 1.028,0.3 0.376,0.114 0.749,0.234 1.122,0.355 0.337,0.109 0.674,0.219 1.009,0.334 0.371,0.127 0.739,0.26 1.107,0.394 0.331,0.12 0.661,0.24 0.989,0.366 0.112,0.042 0.225,0.08 0.336,0.124 0.285,0.111 0.566,0.231 0.849,0.346 0.268,0.109 0.537,0.216 0.803,0.328 0.424,0.179 0.843,0.366 1.262,0.554 0.235,0.106 0.472,0.207 0.705,0.315 0.528,0.245 1.051,0.499 1.571,0.757 0.119,0.059 0.24,0.115 0.359,0.174 0.613,0.31 1.222,0.63 1.824,0.959 0.044,0.023 0.087,0.047 0.13,0.071 L 1.956,1.03 C 1.311,0.676 0.658,0.332 0,0"
             style="fill:#490123;fill-opacity:1;fill-rule:nonzero;stroke:none"
             id="path30"
             inkscape:connector-curvature="0" /></g><g
           id="g32"
           transform="translate(393.979,338.1259)"><path
             d="m 0,0 2.78,-218.284 c 0.314,-24.645 -18.458,-43.287 -41.927,-41.646 l -211.765,14.808 -1.392,109.278 c -5.004,-2.278 -10.668,-3.368 -16.661,-2.949 -5.984,0.419 -11.686,2.303 -16.757,5.286 -12.529,7.329 -21.284,21.408 -21.482,36.964 -0.198,15.547 8.213,28.453 20.577,34.05 5.004,2.278 10.668,3.368 16.653,2.949 5.993,-0.419 11.695,-2.303 16.766,-5.286 l -1.052,82.61 50.349,-3.521 c 7.935,-33.292 36.401,-59.677 69.877,-62.018 33.477,-2.34 61.346,20.105 68.447,52.345 z"
             style="fill:#6d0136;fill-opacity:1;fill-rule:nonzero;stroke:none"
             id="path34"
             inkscape:connector-curvature="0" /></g><g
           id="g36"
           transform="translate(408.6119,346.1672)"><path
             d="m 0,0 -14.633,-8.041 2.78,-218.284 c 0.209,-16.428 -8.062,-30.189 -20.552,-37.053 l 14.633,8.042 c 12.49,6.863 20.761,20.624 20.552,37.052 z"
             style="fill:#490123;fill-opacity:1;fill-rule:nonzero;stroke:none"
             id="path38"
             inkscape:connector-curvature="0" /></g><g
           id="g40"
           transform="translate(328.3917,342.7122)"><path
             d="M 0,0 14.633,8.041 80.22,3.455 65.587,-4.586 Z"
             style="fill:#4b0123;fill-opacity:1;fill-rule:nonzero;stroke:none"
             id="path42"
             inkscape:connector-curvature="0" /></g></g></g><g
       id="g44"
       transform="matrix(1.5076784,0,0,1.5076784,-126.46667,-114.5697)"><g
         id="g46"
         clip-path="url(#clipPath50)"><g
           id="g52"
           transform="translate(252.8777,256.4049)"><path
             d="m 0,0 -49.947,3.493 c -2.154,0.15 -4.218,-0.18 -6.119,-0.865 -1.942,-0.717 -3.703,-1.859 -5.166,-3.304 -1.456,-1.454 -2.631,-3.227 -3.426,-5.237 -0.762,-1.934 -1.171,-4.085 -1.141,-6.364 l 1.223,-96.037 c 0.028,-2.261 0.492,-4.482 1.305,-6.526 0.848,-2.116 2.07,-4.065 3.565,-5.726 1.504,-1.652 3.297,-3.043 5.26,-4.024 1.922,-0.97 3.998,-1.572 6.152,-1.723 l 54.264,-3.794 -10e-4,0.044 78.277,-5.474 c 5.574,-0.39 10.032,4.037 9.957,9.897 l -1.116,87.598 c -0.013,1.047 -0.152,2.068 -0.399,3.052 -1.342,5.439 -6.019,9.722 -11.526,10.107 L 14.536,-20.224 5.3,-3.236 5.172,-3.052 5.079,-2.931 4.679,-2.419 4.424,-2.164 3.577,-1.393 3.231,-1.167 2.64,-0.809 2.261,-0.65 1.975,-0.551 0.823,-0.172 0.613,-0.122 0.243,-0.043 0,0 m -50.08,-32.698 c -1.953,0.136 -3.708,1.789 -3.868,3.848 -0.099,1.176 0.315,2.211 1.026,2.917 0.653,0.658 1.562,1.016 2.584,0.945 l 44.072,-3.082 c 2.128,-0.149 4.004,-2.109 3.907,-4.344 -0.038,-0.973 -0.421,-1.825 -1.033,-2.424 -0.653,-0.649 -1.57,-1.015 -2.575,-0.945 l -44.113,3.085 m 75.762,-16.135 c 4.579,-0.32 8.925,3.097 8.854,8.723 -0.02,1.531 1.138,2.699 2.596,2.597 l 8.055,-0.564 c 1.442,-0.1 2.648,-1.433 2.667,-2.964 0.072,-5.625 4.513,-9.658 9.086,-9.977 2.187,-0.153 4.402,0.542 6.186,2.316 0.513,0.5 1.186,0.721 1.862,0.674 0.676,-0.047 1.354,-0.363 1.876,-0.935 l 5.767,-6.364 c 1.054,-1.163 1.076,-2.932 0.05,-3.924 -5.532,-5.494 -1.414,-15.839 6.498,-16.392 1.459,-0.102 2.648,-1.425 2.667,-2.964 l 0.108,-8.438 c 0.01,-0.766 -0.275,-1.423 -0.738,-1.891 -0.471,-0.486 -1.121,-0.748 -1.859,-0.697 -7.912,0.554 -11.773,-9.242 -6.091,-15.503 1.053,-1.154 1.075,-2.923 0.05,-3.915 l -5.615,-5.594 c -0.513,-0.496 -1.185,-0.715 -1.859,-0.668 -0.675,0.048 -1.353,0.361 -1.88,0.93 -1.832,2.032 -4.07,3.041 -6.256,3.194 -4.573,0.32 -8.919,-3.105 -8.847,-8.731 0.019,-1.531 -1.155,-2.68 -2.597,-2.579 l -8.055,0.563 c -1.458,0.102 -2.647,1.416 -2.667,2.947 -0.071,5.63 -4.51,9.671 -9.087,9.991 -2.19,0.153 -4.411,-0.545 -6.201,-2.329 -0.505,-0.496 -1.178,-0.715 -1.855,-0.668 -0.677,0.047 -1.357,0.361 -1.875,0.929 l -5.759,6.389 c -1.053,1.146 -1.076,2.906 -0.05,3.916 5.516,5.477 1.414,15.829 -6.498,16.383 -0.779,0.054 -1.48,0.455 -1.964,1.043 -0.443,0.523 -0.711,1.192 -0.72,1.914 l -0.107,8.437 c -0.02,1.54 1.146,2.698 2.613,2.596 7.912,-0.554 11.765,9.233 6.091,15.511 -1.053,1.164 -1.075,2.906 -0.05,3.924 l 5.607,5.568 c 0.505,0.501 1.178,0.722 1.855,0.675 0.677,-0.047 1.357,-0.363 1.875,-0.935 1.838,-2.028 4.079,-3.035 6.267,-3.188 m -75.59,3.868 c -1.953,0.137 -3.724,1.79 -3.884,3.85 -0.099,1.185 0.307,2.22 1.026,2.934 0.654,0.649 1.562,1.008 2.584,0.936 l 44.072,-3.082 c 2.128,-0.148 4.004,-2.108 3.907,-4.343 -0.038,-0.964 -0.421,-1.825 -1.033,-2.424 -0.653,-0.649 -1.569,-1.025 -2.575,-0.954 l -44.097,3.083 m 91.382,-17.826 c -9.061,0.633 -16.314,-6.56 -16.193,-16.063 0.028,-2.164 0.431,-4.25 1.151,-6.19 2.43,-6.666 8.481,-11.696 15.48,-12.185 6.999,-0.489 12.908,3.704 15.173,10.007 0.688,1.868 1.03,3.901 1.003,6.074 -0.121,9.503 -7.562,17.724 -16.614,18.357"
             style="fill:#ffffff;fill-opacity:1;fill-rule:nonzero;stroke:none"
             id="path54"
             inkscape:connector-curvature="0" /></g></g></g></g></svg>