<svg id="Capa_1" enable-background="new 0 0 512 512" height="512" viewBox="0 0 512 512" width="512" xmlns="http://www.w3.org/2000/svg"><g><path d="m392 0h-90l-174 256 128 256h136z" fill="#ff4e51"/><path d="m112 256 100 256h44v-450.021z" fill="#ff7149"/><path d="m128 60 128 392h256v-392z" fill="#ffeac3"/><path d="m128 60h128v392h-128z" fill="#fff"/><path d="m227 120v30h105v212h-30v30h90v-30h-30v-212h60v30h30v-60z" fill="#233952"/><path d="m256 0-60 132.581 60 132.581c26.996-11.362 46-38.083 46-69.162v-196z" fill="#ff9441"/><path d="m0 0v512h212v-241h15c10.276 0 20.074-2.081 29-5.838v-265.162z" fill="#ffb739"/></g></svg>